/* XPM */
static char *face_devilish[] = {
/* columns rows colors chars-per-pixel */
"32 32 165 2",
"   c #080400",
".  c #361201",
"X  c #371A01",
"o  c #3C2201",
"O  c #4F0000",
"+  c #5A0000",
"@  c #4A1C01",
"#  c #640000",
"$  c #6A0000",
"%  c #730000",
"&  c #7C0000",
"*  c #4C2301",
"=  c #6C2501",
"-  c #672A01",
";  c #6A3402",
":  c #743F02",
">  c #850000",
",  c #8A0000",
"<  c #950000",
"1  c #990101",
"2  c #950A05",
"3  c #9B0C05",
"4  c #9C1007",
"5  c #9E140A",
"6  c #A50101",
"7  c #AB0503",
"8  c #A00E06",
"9  c #AD0B05",
"0  c #A70C0B",
"q  c #AB0C0B",
"w  c #B40000",
"e  c #B20907",
"r  c #B20F0C",
"t  c #BB0E0B",
"y  c #A11107",
"u  c #AD1207",
"i  c #A2140A",
"p  c #A01B0B",
"a  c #B3150C",
"s  c #BB110B",
"d  c #B61C0D",
"f  c #AC1313",
"g  c #AE1818",
"h  c #B21211",
"j  c #B51A16",
"k  c #B11E1E",
"l  c #8E3502",
"z  c #B9200F",
"x  c #BA3602",
"c  c #B92512",
"v  c #BC2E15",
"b  c #BD3016",
"n  c #B02020",
"m  c #B12D2D",
"M  c #C10000",
"N  c #CC0100",
"B  c #CE0B02",
"V  c #D60000",
"C  c #DC0000",
"Z  c #D00D00",
"A  c #C41C01",
"S  c #CF1108",
"D  c #C21A0D",
"F  c #C91C0D",
"G  c #D21300",
"H  c #D51C01",
"J  c #D01609",
"K  c #D11F0E",
"L  c #E40000",
"P  c #F30000",
"I  c #FF0202",
"U  c #C82202",
"Y  c #C6200F",
"T  c #C9200F",
"R  c #D72201",
"E  c #D82501",
"W  c #DA2C01",
"Q  c #D3220A",
"!  c #DC3301",
"~  c #DE3B02",
"^  c #C52511",
"/  c #CC2511",
"(  c #C72A14",
")  c #CA2813",
"_  c #D32914",
"`  c #CB3016",
"'  c #CD3519",
"]  c #CB3A1B",
"[  c #D03317",
"{  c #D53719",
"}  c #D63D1C",
"|  c #E03F02",
" . c #DF2020",
".. c #DD302E",
"X. c #E32323",
"o. c #EF2929",
"O. c #964E02",
"+. c #DD4305",
"@. c #DF450B",
"#. c #C14118",
"$. c #CC411F",
"%. c #D1431F",
"&. c #DF5215",
"*. c #D45F1F",
"=. c #E14302",
"-. c #E44B02",
";. c #E65203",
":. c #E85703",
">. c #E95B03",
",. c #CA6803",
"<. c #E26203",
"1. c #EB6403",
"2. c #E56A04",
"3. c #EE6C04",
"4. c #E97404",
"5. c #F17404",
"6. c #F37C04",
"7. c #D54520",
"8. c #D44922",
"9. c #D84F25",
"0. c #DA5123",
"q. c #D55D23",
"w. c #D5582B",
"e. c #D76621",
"r. c #D8632E",
"t. c #DD6A28",
"y. c #E16324",
"u. c #E2722B",
"i. c #E55543",
"p. c #F4644C",
"a. c #F5754E",
"s. c #CF7777",
"d. c #D27F7F",
"f. c #F68304",
"g. c #F78905",
"h. c #F98D05",
"j. c #F99205",
"k. c #FD9B05",
"l. c #F19530",
"z. c gray74",
"x. c #C48A8A",
"c. c #CF8B8B",
"v. c #CDA5A5",
"b. c #CFAEAE",
"n. c #DFA5A5",
"m. c #CAB3B3",
"M. c #D7B5B5",
"N. c #D3BFBF",
"B. c gray77",
"V. c #CDCDCD",
"C. c #D6C2C2",
"Z. c #D5CACA",
"A. c #DACCCC",
"S. c #D4D4D4",
"D. c #DCDCDC",
"F. c #EAC4C4",
"G. c #EBC8C8",
"H. c #E6DADA",
"J. c #E3E3E3",
"K. c #EDEDED",
"L. c #F6E5E5",
"P. c #F3EEEE",
"I. c #F5F4F4",
"U. c #FEFEFE",
"Y. c None",
/* pixels */
"Y.Y.Y.Y.Y.Y.Y.Y.Y.Y.Y.Y.Y.Y.Y.Y.Y.Y.Y.Y.Y.Y.Y.Y.Y.Y.Y.Y.Y.Y.Y.Y.",
"Y.Y.Y.Y.Y.Y.Y.Y.Y.Y.Y.Y.Y.Y.Y.Y.Y.Y.Y.Y.Y.Y.Y.Y.Y.Y.Y.Y.Y.Y.Y.Y.",
"Y.Y.Y.Y.Y.Y.Y.Y.Y.Y.Y.Y.Y.Y.Y.Y.Y.Y.Y.Y.Y.Y.Y.Y.Y.Y.Y.Y.Y.Y.Y.Y.",
"Y.Y.Y.7 6 Y.Y.Y.Y.Y., , , > , , , Y.Y.Y.Y.Y.6 7 Y.Y.Y.Y.Y.Y.Y.Y.",
"Y.Y.Y.7 l.*.9 < , p #.q.t.u.t.q.#.p , < u e.l.6 Y.Y.Y.Y.Y.Y.Y.Y.",
"Y.Y.Y.Y.r.p...9 d y.&.@.+.~ +.@.&.y.a j i.a.w.Y.Y.Y.Y.Y.Y.Y.Y.Y.",
"Y.Y.Y.Y.6 X.o.X.7 ~ =.-.-.-.-.=.~ ! 7 X.o.X.6 Y.Y.Y.Y.Y.Y.Y.Y.Y.",
"Y.Y.Y.Y.1 s  .e U =.-.:.>.>.>.;.-.~ A e X.t 1 Y.Y.Y.Y.Y.Y.Y.Y.Y.",
"Y.Y.Y., b 9 7 A =.;.>.1.3.3.3.1.:.-.~ A 7 9 c , Y.Y.Y.Y.Y.Y.Y.Y.",
"Y.Y.Y.i 0.H W ~ +.@   X ,.6.4.*   . x ! R G } y Y.Y.Y.Y.Y.Y.Y.Y.",
"Y.Y., %.Q H W ~ = - 2.O.o h.: ; <.l . ! E G J ' , Y.Y.Y.Y.Y.Y.Y.",
"Y.Y.5 7.Z H W | ;.1.5.f.j.k.g.6.3.:.=.! E G N { 4 Y.Y.Y.Y.I I Y.",
"Y., v _ B H W ~ -.>.3.6.g.h.f.5.1.:.=.! E G N K c , Y.I Y.I I Y.",
"Y., $.S B H W ~ -.:.1.5.6.6.5.3.>.;.=.! R G N B ` , Y.Y.Y.Y.Y.Y.",
"Y., 8.0 6 0 6 6 6 6 6 6 6 6 6 6 6 6 6 6 6 6 6 h ' , Y.P Y.Y.Y.Y.",
"Y.> 9.7 m.Z.D.z.K.I.U.U.U.S.U.U.U.U.U.V.K.J.v.f } > Y.L Y.Y.Y.Y.",
"Y., 7.6 V.S.D.B.K.I.U.U.U.S.U.U.U.U.U.V.K.J.N.0 [ , Y.Y.C Y.Y.Y.",
"Y., ] 0 m.S.D.B.K.I.U.U.U.D.U.U.U.U.U.S.K.J.b.q ( , Y.Y.Y.V Y.Y.",
"Y., c a x.S.D.V.K.I.U.U.U.D.U.U.U.U.U.S.K.J.x.r d , Y.Y.Y.N N Y.",
"Y.Y.4 ^ m S.D.V.K.I.U.U.U.J.U.U.U.U.U.D.K.J.m D 3 Y.Y.Y.Y.Y.M Y.",
"Y.Y., ` q v.D.S.K.I.U.U.U.J.U.U.U.U.U.J.K.M.q / , Y.Y.Y.Y.Y.w Y.",
"Y.Y.Y.8 ) f A.S.K.I.U.U.U.K.U.U.U.U.U.J.H.g F 3 Y.Y.Y.Y.Y.6 6 Y.",
"Y.Y.Y., z D g C.K.I.U.U.U.K.U.U.U.U.U.H.n s a > $ % & > , < Y.Y.",
"Y.Y.Y.Y., ^ D 0 c.I.U.U.U.I.U.U.U.U.n.q s D > # # # $ % Y.Y.Y.Y.",
"Y.Y.Y.Y.Y.> d / q g s.F.L.P.L.G.d.k q F a > + O O Y.Y.Y.Y.Y.Y.Y.",
"Y.Y.Y.Y.Y.Y.> 3 ( T s a q 6 q r t F Y 3 > Y.Y.Y.Y.Y.Y.Y.Y.Y.Y.Y.",
"Y.Y.Y.Y.Y.Y.Y.$ > 2 d ^ / _ / Y a 2 > + Y.Y.Y.Y.Y.Y.Y.Y.Y.Y.Y.Y.",
"Y.Y.Y.Y.Y.Y.Y.Y.Y.Y.& > > > > > % Y.Y.Y.Y.Y.Y.Y.Y.Y.Y.Y.Y.Y.Y.Y.",
"Y.Y.Y.Y.Y.Y.Y.Y.Y.Y.Y.Y.Y.Y.Y.Y.Y.Y.Y.Y.Y.Y.Y.Y.Y.Y.Y.Y.Y.Y.Y.Y.",
"Y.Y.Y.Y.Y.Y.Y.Y.Y.Y.Y.Y.Y.Y.Y.Y.Y.Y.Y.Y.Y.Y.Y.Y.Y.Y.Y.Y.Y.Y.Y.Y.",
"Y.Y.Y.Y.Y.Y.Y.Y.Y.Y.Y.Y.Y.Y.Y.Y.Y.Y.Y.Y.Y.Y.Y.Y.Y.Y.Y.Y.Y.Y.Y.Y.",
"Y.Y.Y.Y.Y.Y.Y.Y.Y.Y.Y.Y.Y.Y.Y.Y.Y.Y.Y.Y.Y.Y.Y.Y.Y.Y.Y.Y.Y.Y.Y.Y."
};
